<?xml version="1.0" encoding="UTF-8"?>
<!DOCTYPE svg PUBLIC "-//W3C//DTD SVG 1.1//EN" "http://www.w3.org/Graphics/SVG/1.1/DTD/svg11.dtd">
<svg xmlns="http://www.w3.org/2000/svg" version="1.1" width="2000px" height="222px" style="shape-rendering:geometricPrecision; text-rendering:geometricPrecision; image-rendering:optimizeQuality; fill-rule:evenodd; clip-rule:evenodd" xmlns:xlink="http://www.w3.org/1999/xlink">
<g><path style="opacity:0.987" fill="#49586d" d="M 1776.5,-0.5 C 1796.83,-0.5 1817.17,-0.5 1837.5,-0.5C 1837.5,73.5 1837.5,147.5 1837.5,221.5C 1817.17,221.5 1796.83,221.5 1776.5,221.5C 1776.5,147.5 1776.5,73.5 1776.5,-0.5 Z"/></g>
<g><path style="opacity:0.749" fill="#48576c" d="M 1849.5,-0.5 C 1870.17,-0.5 1890.83,-0.5 1911.5,-0.5C 1911.5,73.5 1911.5,147.5 1911.5,221.5C 1890.83,221.5 1870.17,221.5 1849.5,221.5C 1849.5,147.5 1849.5,73.5 1849.5,-0.5 Z"/></g>
<g><path style="opacity:0.499" fill="#48576a" d="M 1923.5,-0.5 C 1943.83,-0.5 1964.17,-0.5 1984.5,-0.5C 1984.5,73.5 1984.5,147.5 1984.5,221.5C 1964.17,221.5 1943.83,221.5 1923.5,221.5C 1923.5,147.5 1923.5,73.5 1923.5,-0.5 Z"/></g>
<g><path style="opacity:0.932" fill="#49586c" d="M 72.5,30.5 C 92.9391,29.5549 112.939,32.0549 132.5,38C 133.586,42.4438 133.586,46.9438 132.5,51.5C 124.991,46.9141 116.991,43.0808 108.5,40C 79.8474,31.4528 55.3474,37.9528 35,59.5C 18.768,83.8841 14.768,110.217 23,138.5C 33.3885,167.694 54.0552,183.027 85,184.5C 103.425,184.303 119.925,178.636 134.5,167.5C 135.28,172.508 134.946,177.508 133.5,182.5C 106.716,191.941 79.7155,192.774 52.5,185C 15.2869,168.738 -1.54644,140.238 2,99.5C 9.86764,60.4651 33.3676,37.4651 72.5,30.5 Z"/></g>
<g><path style="opacity:0.941" fill="#49586c" d="M 777.5,30.5 C 791.889,28.1308 804.056,32.1308 814,42.5C 821.763,57.0816 820.763,71.0816 811,84.5C 805.181,91.4787 798.348,97.1454 790.5,101.5C 804.517,116.35 818.351,131.35 832,146.5C 836.735,133.461 841.568,120.461 846.5,107.5C 851.833,106.167 857.167,106.167 862.5,107.5C 853.833,122.167 845.167,136.833 836.5,151.5C 847.167,163.167 857.833,174.833 868.5,186.5C 861.524,187.664 854.524,187.831 847.5,187C 841.322,179.99 834.989,173.157 828.5,166.5C 815.224,185.797 796.891,193.63 773.5,190C 741.225,182.299 730.058,162.465 740,130.5C 746.722,117.549 756.889,108.382 770.5,103C 758.924,92.3482 752.257,79.1815 750.5,63.5C 751.284,45.5221 760.284,34.5221 777.5,30.5 Z M 781.5,36.5 C 795.378,35.8738 802.878,42.5405 804,56.5C 805.992,73.3865 800.159,86.7198 786.5,96.5C 777.198,88.5571 770.365,78.8904 766,67.5C 762.739,52.6866 767.906,42.3533 781.5,36.5 Z M 774.5,107.5 C 791.349,124.849 807.682,142.683 823.5,161C 810.335,182.499 792.002,188.832 768.5,180C 757.174,172.184 751.508,161.351 751.5,147.5C 751.68,129.698 759.347,116.365 774.5,107.5 Z"/></g>
<g><path style="opacity:0.94" fill="#49586c" d="M 1278.5,30.5 C 1288.21,30.2142 1297.88,30.7142 1307.5,32C 1313.56,32.7615 1319.22,34.5949 1324.5,37.5C 1323.73,41.4452 1323.23,45.4452 1323,49.5C 1322.59,49.9574 1322.09,50.2907 1321.5,50.5C 1306.59,36.2177 1289.59,33.051 1270.5,41C 1257.22,51.4803 1255.05,63.9803 1264,78.5C 1266.83,81.3333 1269.67,84.1667 1272.5,87C 1287.67,96.4174 1302.67,106.084 1317.5,116C 1329.93,127.525 1334.43,141.691 1331,158.5C 1326.11,176.714 1314.28,187.214 1295.5,190C 1278.46,191.185 1261.79,189.185 1245.5,184C 1243.71,183.804 1242.38,182.971 1241.5,181.5C 1242.26,177.889 1242.76,174.222 1243,170.5C 1243.31,169.692 1243.81,169.025 1244.5,168.5C 1258.38,180.181 1274.38,185.347 1292.5,184C 1313.89,178.392 1321.72,164.892 1316,143.5C 1311.27,134.1 1304.43,126.6 1295.5,121C 1282.66,113.747 1270.32,105.747 1258.5,97C 1243.38,82.0947 1240.88,65.2614 1251,46.5C 1258.37,37.904 1267.54,32.5707 1278.5,30.5 Z"/></g>
<g><path style="opacity:0.946" fill="#49586c" d="M 178.5,33.5 C 183.833,33.5 189.167,33.5 194.5,33.5C 194.5,57.1667 194.5,80.8333 194.5,104.5C 224.833,104.5 255.167,104.5 285.5,104.5C 285.5,80.8333 285.5,57.1667 285.5,33.5C 290.833,33.5 296.167,33.5 301.5,33.5C 301.5,84.8333 301.5,136.167 301.5,187.5C 296.167,187.5 290.833,187.5 285.5,187.5C 285.5,161.833 285.5,136.167 285.5,110.5C 255.167,110.5 224.833,110.5 194.5,110.5C 194.5,136.167 194.5,161.833 194.5,187.5C 189.167,187.5 183.833,187.5 178.5,187.5C 178.5,136.167 178.5,84.8333 178.5,33.5 Z"/></g>
<g><path style="opacity:0.948" fill="#49586c" d="M 392.5,33.5 C 397.833,33.5 403.167,33.5 408.5,33.5C 427.637,84.911 446.97,136.244 466.5,187.5C 460.794,187.829 455.128,187.495 449.5,186.5C 440.397,163.022 431.397,139.522 422.5,116C 406.17,115.5 389.837,115.333 373.5,115.5C 366.575,139.275 359.242,162.942 351.5,186.5C 345.872,187.495 340.206,187.829 334.5,187.5C 354.03,136.244 373.363,84.911 392.5,33.5 Z M 395.5,45.5 C 403.713,66.6236 412.046,87.7903 420.5,109C 405.5,109.667 390.5,109.667 375.5,109C 382.466,87.9346 389.133,66.768 395.5,45.5 Z"/></g>
<g><path style="opacity:0.973" fill="#49586c" d="M 501.5,33.5 C 506.833,33.5 512.167,33.5 517.5,33.5C 517.5,83.1667 517.5,132.833 517.5,182.5C 533.846,180.26 550.18,177.927 566.5,175.5C 566.5,179.5 566.5,183.5 566.5,187.5C 544.833,187.5 523.167,187.5 501.5,187.5C 501.5,136.167 501.5,84.8333 501.5,33.5 Z"/></g>
<g><path style="opacity:0.985" fill="#4a596d" d="M 602.5,33.5 C 607.833,33.5 613.167,33.5 618.5,33.5C 618.5,84.8333 618.5,136.167 618.5,187.5C 613.167,187.5 607.833,187.5 602.5,187.5C 602.5,136.167 602.5,84.8333 602.5,33.5 Z"/></g>
<g><path style="opacity:0.943" fill="#49586c" d="M 691.5,33.5 C 698.175,33.3337 704.842,33.5004 711.5,34C 687.351,56.3152 663.685,79.1485 640.5,102.5C 666.283,130.572 691.95,158.739 717.5,187C 710.5,187.667 703.5,187.667 696.5,187C 672.5,161 648.5,135 624.5,109C 646.958,83.8957 669.292,58.729 691.5,33.5 Z"/></g>
<g><path style="opacity:0.955" fill="#49586c" d="M 902.5,33.5 C 922.836,33.3334 943.169,33.5 963.5,34C 998.891,37.4184 1022.06,55.9184 1033,89.5C 1041.39,126.178 1030.22,155.011 999.5,176C 988.271,182.141 976.271,185.808 963.5,187C 943.169,187.5 922.836,187.667 902.5,187.5C 902.5,136.167 902.5,84.8333 902.5,33.5 Z M 917.5,39.5 C 933.872,39.112 950.205,39.612 966.5,41C 995.383,47.3841 1012.05,65.2174 1016.5,94.5C 1020.57,118.083 1016.07,139.749 1003,159.5C 993.287,170.609 981.12,177.442 966.5,180C 950.205,181.388 933.872,181.888 917.5,181.5C 917.5,134.167 917.5,86.8333 917.5,39.5 Z"/></g>
<g><path style="opacity:0.95" fill="#49586c" d="M 1078.5,33.5 C 1083.83,33.5 1089.17,33.5 1094.5,33.5C 1094.33,68.8349 1094.5,104.168 1095,139.5C 1102.72,173.471 1123.89,186.971 1158.5,180C 1180.87,173.11 1191.87,157.943 1191.5,134.5C 1190.19,100.827 1188.86,67.16 1187.5,33.5C 1192.83,33.5 1198.17,33.5 1203.5,33.5C 1202.45,71.1849 1200.95,108.852 1199,146.5C 1195.81,170.017 1182.65,184.184 1159.5,189C 1139.82,193.019 1121.16,190.352 1103.5,181C 1089.03,170.566 1080.86,156.399 1079,138.5C 1078.5,103.502 1078.33,68.5016 1078.5,33.5 Z"/></g>
<g><path style="opacity:0.924" fill="#49586c" d="M 1348.5,33.5 C 1391.5,33.5 1434.5,33.5 1477.5,33.5C 1477.5,37.5 1477.5,41.5 1477.5,45.5C 1458.51,43.0844 1439.51,40.7511 1420.5,38.5C 1420.5,88.1667 1420.5,137.833 1420.5,187.5C 1415.17,187.5 1409.83,187.5 1404.5,187.5C 1404.5,137.833 1404.5,88.1667 1404.5,38.5C 1385.83,40.8333 1367.17,43.1667 1348.5,45.5C 1348.5,41.5 1348.5,37.5 1348.5,33.5 Z"/></g>
<g><path style="opacity:0.924" fill="#49586c" d="M 1511.5,33.5 C 1534.17,33.5 1556.83,33.5 1579.5,33.5C 1579.67,37.5138 1579.5,41.5138 1579,45.5C 1561.92,42.8022 1544.75,40.4688 1527.5,38.5C 1527.5,60.5 1527.5,82.5 1527.5,104.5C 1544.18,103.666 1560.85,102.666 1577.5,101.5C 1577.5,105.167 1577.5,108.833 1577.5,112.5C 1561.11,111.928 1544.78,110.928 1528.5,109.5C 1527.5,133.824 1527.17,158.158 1527.5,182.5C 1545.08,180.488 1562.58,178.154 1580,175.5C 1580.5,179.486 1580.67,183.486 1580.5,187.5C 1557.5,187.5 1534.5,187.5 1511.5,187.5C 1511.5,136.167 1511.5,84.8333 1511.5,33.5 Z"/></g>
<g><path style="opacity:0.959" fill="#49586c" d="M 1625.5,33.5 C 1639.17,33.3334 1652.84,33.5001 1666.5,34C 1700.3,39.7704 1711.13,58.6037 1699,90.5C 1692.57,98.9098 1684.07,104.076 1673.5,106C 1687.78,109.883 1698.28,118.383 1705,131.5C 1709.75,145.403 1715.08,159.07 1721,172.5C 1725.51,179.489 1731.67,184.155 1739.5,186.5C 1719.98,191.158 1706.81,184.158 1700,165.5C 1696.29,150.351 1690.62,136.018 1683,122.5C 1674.9,112.532 1664.4,107.532 1651.5,107.5C 1651.24,106.022 1651.57,104.689 1652.5,103.5C 1678.52,102.646 1690.02,89.3124 1687,63.5C 1684.28,49.4431 1675.78,41.6098 1661.5,40C 1654.84,39.5004 1648.17,39.3337 1641.5,39.5C 1641.5,88.8333 1641.5,138.167 1641.5,187.5C 1636.17,187.5 1630.83,187.5 1625.5,187.5C 1625.5,136.167 1625.5,84.8333 1625.5,33.5 Z"/></g>
</svg>
